<svg width="188.000000" height="154.000000" viewBox="0 0 188 154" fill="none" xmlns="http://www.w3.org/2000/svg" xmlns:xlink="http://www.w3.org/1999/xlink">
	<desc>
			Created with Pixso.
	</desc>
	<mask id="mask9_258" mask-type="alpha" maskUnits="userSpaceOnUse" x="0.000000" y="0.000000" width="188.000000" height="154.000000">
		<rect width="188.000000" height="154.000000" fill="#C4C4C4"/>
	</mask>
	<g mask="url(#mask9_258)">
		<path d="M74.7891 86.8906C74.5231 85.4159 76.0143 84.8095 72.635 85.1364C70.8563 85.3085 68.7395 84.7025 67.2263 84.7144C66.4557 84.7198 66.1367 85.1159 66.0271 85.3572C65.8439 85.7583 66.104 86.1221 66.104 86.1221C65.5154 86.3146 65.6951 87.1927 65.7424 87.374C65.8339 87.7264 66.2036 87.9052 66.2036 87.9052C66.2036 87.9052 65.7582 88.1174 65.8693 88.9199C65.9362 89.4053 66.1068 89.6639 66.4353 89.7754C66.4353 89.7754 66.301 90.7269 67.0348 90.939C67.3956 91.0438 69.6021 91.5773 73.4529 91.2213C75.8254 91.0027 75.3506 90.1073 75.0948 88.6919L74.7891 86.8906Z" fill-rule="evenodd" fill="#F9C4AB"/>
		<path d="M70.4349 89.425C69.4814 89.5023 68.3636 89.5192 67.5999 89.5192C67.3286 89.5192 67.1021 89.5168 66.9424 89.5146C66.8628 89.5137 66.7996 89.5128 66.7563 89.5119L66.7072 89.5105L66.6931 89.5105L66.6831 89.805L66.7053 89.5109L66.6931 89.5105L66.6831 89.805L66.7053 89.5109C66.5201 89.4968 66.3588 89.6357 66.3447 89.821C66.3311 90.0063 66.4697 90.1678 66.6549 90.1819L66.6763 90.183C66.7295 90.1843 67.0844 90.1917 67.5999 90.1917C68.3737 90.1917 69.5032 90.1752 70.489 90.0955C70.6742 90.0805 70.812 89.9185 70.797 89.7331C70.7821 89.5478 70.6196 89.4099 70.4349 89.425Z" fill-rule="evenodd" fill="#3E3D62"/>
		<path d="M70.1738 87.786C69.7362 87.8215 69.2517 87.8347 68.7794 87.8347C68.1476 87.8347 67.5375 87.8114 67.0845 87.7873C66.8578 87.7756 66.6704 87.7637 66.5389 87.7545C66.4729 87.75 66.4216 87.7464 66.3856 87.7437L66.3447 87.7405L66.3342 87.7396L66.3337 87.7396C66.149 87.7217 65.9849 87.857 65.9672 88.0423C65.9493 88.2271 66.0848 88.3915 66.2697 88.4092C66.2847 88.4106 66.3556 88.416 66.4926 88.4255C66.8965 88.4533 67.8069 88.5075 68.7794 88.5075C69.2644 88.5075 69.7648 88.4943 70.2284 88.4565C70.4132 88.4416 70.5509 88.2795 70.5365 88.0942C70.5214 87.9089 70.359 87.7709 70.1738 87.786Z" fill-rule="evenodd" fill="#3E3D62"/>
		<path d="M66.0076 86.7258L66.0171 86.7266L66.0216 86.7271C66.0935 86.7325 67.261 86.8268 68.5575 86.8271C69.0583 86.8268 69.5789 86.8131 70.0654 86.7735C70.2506 86.7585 70.3885 86.5964 70.3735 86.4111C70.3585 86.2258 70.1965 86.0879 70.0115 86.103C69.55 86.1403 69.0455 86.1544 68.5575 86.1544C67.2927 86.1544 66.1377 86.0616 66.0762 86.0565L66.049 86.3915L66.0808 86.0565L66.0717 86.0556C65.8865 86.0383 65.7228 86.174 65.7051 86.3588C65.6873 86.5435 65.8228 86.7079 66.0076 86.7258Z" fill-rule="evenodd" fill="#3E3D62"/>
		<path d="M69.2659 83.0983C69.6967 82.39 71.0839 83.1274 72.2283 83.8586C72.7701 84.2041 73.5277 84.603 73.7565 84.9904C74.094 85.5608 71.6188 85.6281 71.6188 85.6281C71.6188 85.6281 68.401 84.5205 69.2659 83.0983Z" fill-rule="evenodd" fill="#F9C4AB"/>
		<path d="M70.9982 84.8005L70.9904 84.7977C70.8995 84.7682 70.0133 84.4159 69.5292 83.8959C69.4014 83.7612 69.1888 83.7553 69.0538 83.8832C68.9191 84.0107 68.9132 84.2238 69.0411 84.3589C69.3845 84.7205 69.8121 84.9808 70.1566 85.1597C70.5009 85.3376 70.7634 85.4311 70.7736 85.4347C70.9486 85.4966 71.1405 85.405 71.2024 85.2298C71.2648 85.0545 71.1729 84.8624 70.9982 84.8005Z" fill-rule="evenodd" fill="#3E3D62"/>
		<path d="M113.204 59.2064C113.204 59.2064 106.099 69.7872 92.2345 75.1113C84.3152 78.152 73.0471 83.1019 73.0471 83.1019L74.3091 91.0278C74.3091 91.0278 95.0847 90.6204 106.183 86.148C118.866 81.0364 125.353 66.4006 125.353 66.4006L113.204 59.2064Z" fill-rule="evenodd" fill="#CE7A24"/>
		<path d="M81.4396 145.109C39.3127 145.109 5.16187 144.808 5.16187 139.98C5.16187 135.418 21.307 134.704 45.0808 134.704C55.8903 134.704 68.2721 134.851 81.4396 134.851C95.8817 134.851 111.726 134.639 126.306 134.639C154.254 134.639 177.572 135.42 177.572 139.98C177.572 145.11 123.566 145.109 81.4396 145.109ZM159.768 141.587C158.763 141.587 158.583 143.157 159.601 143.157C160.606 143.157 160.786 141.587 159.768 141.587ZM85.4205 140.215C84.134 140.215 84.0635 142.22 85.3588 142.22C86.6451 142.22 86.7157 140.215 85.4205 140.215Z" fill-rule="evenodd" fill="#7A8A4F"/>
		<path d="M85.3588 142.22C84.0636 142.22 84.134 140.215 85.4205 140.215C86.7158 140.215 86.6453 142.22 85.3588 142.22Z" fill-rule="evenodd" fill="#C9C9CB"/>
		<path d="M159.601 143.157C158.583 143.157 158.763 141.587 159.768 141.587C160.786 141.587 160.606 143.157 159.601 143.157Z" fill-rule="evenodd" fill="#C9C9CB"/>
		<path d="M17.8702 119.901C17.8702 119.901 8.61731 99.5306 35.1416 89.9631L40.0498 65.4575C40.2555 64.4318 41.3837 64.3794 42.158 65.0818C43.7665 66.5414 48.9204 71.7925 48.9204 71.7925L56.2961 71.5217C56.2961 71.5217 60.5548 66.2058 62.4017 64.8619C62.8832 64.512 64.6683 64.1896 64.9635 66.2123C66.4025 76.0565 70.6902 129.698 68.4509 131.938C65.9839 134.407 16.0194 131.938 16.0194 131.938L17.8702 119.901Z" fill-rule="evenodd" fill="#F4B949"/>
		<path d="M18.7037 115.365C18.7037 115.365 8.22937 124.681 13.3502 131.669C15.3695 134.425 25.6522 133.499 37.0524 133.488C54.5593 133.472 75.0543 133.234 75.0543 133.234C75.0543 133.234 78.6346 126.948 74.4452 124.852C70.2557 122.756 20.3329 123.284 20.3329 123.284L18.7037 115.365Z" fill-rule="evenodd" fill="#FAC895"/>
		<path d="M74.9023 133.593C74.785 133.593 74.6704 133.536 74.6017 133.43C74.4929 133.264 74.5398 133.042 74.7053 132.933C75.6453 132.318 76.6366 130.543 76.5992 128.745C76.5778 127.692 76.1812 126.215 74.4132 125.161C72.2842 123.89 65.7861 124.496 58.2625 125.197C54.748 125.525 50.7648 125.896 46.7495 126.125C34.0533 126.847 21.536 125.527 21.4109 125.514C21.2139 125.493 21.0715 125.316 21.0929 125.119C21.1139 124.921 21.2889 124.779 21.4878 124.8C21.6124 124.813 34.0743 126.128 46.7086 125.408C50.7111 125.179 54.6876 124.809 58.196 124.482C66.1599 123.74 72.4503 123.153 74.7809 124.544C76.8312 125.767 77.2916 127.496 77.3171 128.73C77.3599 130.801 76.2225 132.799 75.0984 133.534C75.0374 133.574 74.9697 133.593 74.9023 133.593Z" fill-rule="evenodd" fill="#3E3D62"/>
		<path d="M13.3502 132.028C13.2399 132.028 13.1309 131.978 13.0605 131.882C7.79089 124.69 17.9869 116.92 18.0907 116.842C18.2485 116.724 18.4733 116.756 18.5929 116.915C18.7117 117.074 18.6793 117.299 18.5206 117.417C18.4227 117.491 8.78918 124.838 13.6394 131.456C13.7566 131.617 13.7219 131.842 13.562 131.959C13.4984 132.005 13.424 132.028 13.3502 132.028Z" fill-rule="evenodd" fill="#3E3D62"/>
		<path d="M51.6827 77.8624C51.4949 77.8624 51.337 77.7158 51.3247 77.5256C51.296 77.0643 51.448 76.6191 51.7537 76.2726C52.0594 75.9257 52.4811 75.7186 52.9424 75.6895C53.8892 75.6358 54.717 76.3555 54.7771 77.3079C54.7899 77.506 54.6393 77.6767 54.4414 77.6889C54.2495 77.6999 54.0729 77.5515 54.0607 77.3534C54.0256 76.7958 53.5443 76.3742 52.9875 76.4061C52.7178 76.4233 52.4707 76.5444 52.2924 76.7475C52.1135 76.9505 52.0243 77.2104 52.0416 77.4804C52.054 77.6785 51.9033 77.8487 51.7054 77.8615L51.6827 77.8624Z" fill-rule="evenodd" fill="#3E3D62"/>
		<path d="M57.3177 77.4732C57.13 77.4732 56.972 77.3271 56.9603 77.1368C56.9312 76.6752 57.0836 76.2303 57.3888 75.8834C57.6945 75.5366 58.1167 75.3298 58.5775 75.3012C59.0388 75.2698 59.4833 75.4236 59.83 75.7296C60.1763 76.0355 60.3832 76.4579 60.4122 76.9192C60.4249 77.1171 60.2745 77.2879 60.0769 77.3001C59.8854 77.3134 59.7089 77.1632 59.6963 76.9646C59.679 76.6943 59.5579 76.447 59.355 76.2686C59.1526 76.0902 58.896 76.0027 58.6226 76.0178C58.3528 76.0345 58.1062 76.1561 57.9275 76.3587C57.7487 76.5613 57.6595 76.8218 57.6768 77.0912C57.6891 77.2897 57.5389 77.46 57.3406 77.4723L57.3177 77.4732Z" fill-rule="evenodd" fill="#3E3D62"/>
		<path d="M46.7285 126.125C46.557 126.125 46.4052 126.002 46.3751 125.827L43.4071 108.553C43.3734 108.357 43.5045 108.171 43.7001 108.138C43.8958 108.104 44.0804 108.235 44.1146 108.431L47.0825 125.706C47.1162 125.901 46.9851 126.087 46.79 126.12L46.7285 126.125Z" fill-rule="evenodd" fill="#3E3D62"/>
		<path d="M59.4084 124.836L59.3474 124.831C59.1519 124.797 59.0208 124.612 59.0544 124.416L62.0223 107.141C62.056 106.946 62.24 106.814 62.4374 106.848C62.6324 106.881 62.7635 107.067 62.7299 107.263L59.762 124.538C59.7319 124.713 59.58 124.836 59.4084 124.836Z" fill-rule="evenodd" fill="#3E3D62"/>
		<path d="M53.3326 124.878C53.1412 124.878 52.9819 124.726 52.9747 124.532L52.4224 110.347C52.4147 110.15 52.5688 109.982 52.7668 109.975C52.9614 109.96 53.1316 110.121 53.1394 110.32L53.6917 124.505C53.6995 124.702 53.5452 124.87 53.3473 124.877L53.3326 124.878Z" fill-rule="evenodd" fill="#3E3D62"/>
		<path d="M52.9769 110.566C51.655 110.566 50.3726 110.346 50.1378 110.304C49.9426 110.269 49.813 110.082 49.848 109.887C49.8831 109.692 50.0691 109.562 50.2648 109.598C51.3052 109.784 54.219 110.117 55.2007 109.425C55.3623 109.31 55.5865 109.348 55.7007 109.511C55.8153 109.673 55.7766 109.897 55.6146 110.011C55.0087 110.439 53.9816 110.566 52.9769 110.566Z" fill-rule="evenodd" fill="#3E3D62"/>
		<path d="M55.5784 80.0317L56.3755 80.7347C56.835 80.3937 57.2521 80.0299 57.4596 79.7946C57.0675 79.7846 56.3218 79.8875 55.5784 80.0317ZM56.3536 81.5532C56.2686 81.5532 56.1835 81.5231 56.1161 81.4635L54.5685 80.0982C54.4674 80.0094 54.4248 79.8715 54.4575 79.7408C54.4906 79.6107 54.5935 79.5091 54.7246 79.479C55.3306 79.3383 57.3572 78.9009 57.9877 79.1667C58.1687 79.2438 58.2843 79.394 58.3038 79.5792C58.3485 80.0004 57.7616 80.6423 56.5597 81.488C56.4973 81.5314 56.4255 81.5532 56.3536 81.5532Z" fill-rule="evenodd" fill="#3E3D62"/>
		<path d="M48.6266 72.2983C48.4402 72.2983 48.2823 72.1536 48.269 71.9641C48.2555 71.7662 48.4047 71.5945 48.6022 71.5809C48.8878 71.5609 55.6158 71.0983 57.9108 71.3077C58.1083 71.3259 58.2538 71.5007 58.2362 71.6983C58.2184 71.8959 58.0442 72.0383 57.8462 72.0237C55.6084 71.8207 48.7213 72.2924 48.6522 72.2974L48.6266 72.2983Z" fill-rule="evenodd" fill="#3E3D62"/>
		<path d="M47.0879 69.936C46.6768 69.5212 46.2246 69.0661 45.7618 68.6032C46.4542 69.1594 47.0765 69.5355 47.0879 69.8856C47.0889 69.9023 47.0885 69.9196 47.0879 69.936ZM44.6259 67.4705C43.6241 66.4762 42.6942 65.5685 42.158 65.0817C42.0245 64.9612 41.8809 64.8624 41.733 64.7872C41.7804 64.7763 41.8286 64.7712 41.8772 64.7712C42.677 64.7712 43.6638 66.1871 44.6259 67.4705Z" fill-rule="evenodd" fill="#F3F1F2"/>
		<path d="M41.1895 72.6084C41.1895 72.6084 39.9948 65.8249 41.532 64.8716C41.5975 64.8306 41.6643 64.8032 41.7332 64.7874C41.8809 64.8625 42.0247 64.9613 42.158 65.0818C42.6943 65.5686 43.6243 66.4763 44.626 67.4706C44.6287 67.4738 44.631 67.4775 44.6337 67.4806C44.9694 67.9286 45.3766 68.2937 45.762 68.6033C46.2246 69.0662 46.6768 69.5214 47.088 69.9361C47.0258 71.606 41.1895 72.6084 41.1895 72.6084Z" fill-rule="evenodd" fill="#FBCEA0"/>
		<path d="M65.5828 71.4283C65.3622 69.3242 65.1627 67.6212 64.998 66.4507C65.4253 68.0601 65.5477 70.2861 65.5828 71.4283ZM64.3221 64.9211C64.0541 64.7067 63.7394 64.618 63.4382 64.6038C63.516 64.576 63.5938 64.561 63.6724 64.561C63.7534 64.561 63.8353 64.5769 63.9177 64.6097C64.0651 64.6689 64.1993 64.7754 64.3221 64.9211Z" fill-rule="evenodd" fill="#F3F1F2"/>
		<path d="M64.495 72.1978C62.8849 72.1978 60.0598 72.0257 59.8888 70.8261C59.8114 70.2861 60.6071 69.1148 61.3154 67.7183C62.0051 66.3589 62.6952 64.8725 63.4381 64.6038C63.7393 64.618 64.0541 64.7068 64.322 64.9211C64.6058 65.259 64.8265 65.8052 64.998 66.4507C65.1627 67.6212 65.3621 69.3242 65.5826 71.4283C65.5968 71.8864 65.5968 72.17 65.5968 72.17C65.5968 72.17 65.1445 72.1978 64.495 72.1978Z" fill-rule="evenodd" fill="#FBCEA0"/>
		<path d="M34.1813 93.3875C34.0717 93.3875 33.9657 93.336 33.8973 93.2505C33.7573 93.0729 33.6931 92.9918 35.8718 83.7607C35.9174 83.5682 36.1093 83.447 36.303 83.494C36.4965 83.539 36.6156 83.7324 36.5701 83.926C35.809 87.1509 34.603 92.3831 34.537 92.9818L34.5402 93.0283C34.5402 93.2267 34.3792 93.3875 34.1813 93.3875Z" fill-rule="evenodd" fill="#3E3D62"/>
		<path d="M30.6213 91.9539C30.949 93.274 30.9894 95.0249 30.9763 96.3852C30.9635 97.7459 30.5699 99.1545 29.6256 100.133C28.9604 100.822 28.0305 101.304 27.647 102.181C27.4509 102.63 27.425 103.132 27.3396 103.615C26.9647 105.735 25.3029 107.572 23.2324 108.156C21.1625 108.74 18.4283 107.713 17.0026 106.101C17.0026 106.101 18.9484 99.8278 23.2179 96.0902C26.8191 92.9372 30.6213 91.9539 30.6213 91.9539Z" fill-rule="evenodd" fill="#E48F3D"/>
		<path d="M30.9003 108.63C30.9594 108.63 30.9467 108.539 30.8879 108.539C30.8293 108.539 30.8416 108.63 30.9003 108.63Z" fill-rule="evenodd" fill="#00A899"/>
		<path d="M32.099 105.109C31.9525 104.985 31.7937 104.895 31.6245 104.849C30.3931 104.52 28.9822 105.035 28.4805 106.266C28.1843 106.992 28.2876 107.873 28.7621 108.498C29.0883 108.927 29.5659 109.224 30.0736 109.405C31.0704 109.761 32.3738 109.581 32.8983 108.661C33.3901 107.8 32.9679 105.85 32.099 105.109Z" fill-rule="evenodd" fill="#E48F3D"/>
		<path d="M56.5428 84.2482C56.3558 84.2482 56.1985 84.1039 56.1848 83.9146L55.9951 81.2195C55.9814 81.0214 56.1301 80.8494 56.3281 80.8357C56.5264 80.8252 56.6975 80.9709 56.7117 81.1685L56.9012 83.8635C56.9149 84.0616 56.7661 84.2336 56.5684 84.2473L56.5428 84.2482Z" fill-rule="evenodd" fill="#3E3D62"/>
		<path d="M56.7679 84.3658C55.0688 84.3658 53.8055 83.58 53.7418 83.539C53.5748 83.4334 53.5249 83.2121 53.6309 83.0446C53.7363 82.8771 53.9575 82.827 54.1254 82.9322C54.1422 82.9426 55.8153 83.9747 57.7698 83.5381C57.9635 83.4957 58.1552 83.6173 58.1979 83.8113C58.241 84.0047 58.1191 84.1969 57.9259 84.2401C57.5245 84.3289 57.136 84.3658 56.7679 84.3658Z" fill-rule="evenodd" fill="#3E3D62"/>
		<path d="M8.60327 138.515L79.8329 138.515L79.8329 114.979L8.60327 114.979L8.60327 138.515Z" fill-rule="evenodd" fill="#CA905C"/>
		<path d="M28.4196 124.238L60.7137 123.674L61.2773 134.823L29.2657 135.528L28.4196 124.238Z" fill-rule="evenodd" fill="#FEFEFE"/>
		<path d="M33.4487 131.882C33.5116 131.112 33.1239 130.27 32.9147 129.541C32.7509 128.971 32.5707 128.407 32.3943 127.842C32.3074 127.564 31.8337 127.468 31.7133 127.778C31.2396 129.001 30.6628 130.405 30.6091 131.734C30.5913 132.173 31.1949 132.185 31.328 131.821C31.7738 130.599 31.9512 129.274 32.4015 128.039C32.1632 128.048 31.9248 128.057 31.6863 128.066C31.8761 128.63 32.0663 129.195 32.2682 129.755C32.5284 130.476 32.73 131.393 33.2441 131.978C33.3228 132.067 33.4415 131.973 33.4487 131.882Z" fill-rule="evenodd" fill="#3E3D62"/>
		<path d="M31.4854 130.658C32.0895 130.602 32.6978 130.638 33.2946 130.515C33.6334 130.444 33.5461 129.935 33.2159 129.927C32.6082 129.914 32.0131 130.068 31.4103 130.125C31.0649 130.157 31.1401 130.691 31.4854 130.658Z" fill-rule="evenodd" fill="#3E3D62"/>
		<path d="M34.9728 131.84C35.491 131.956 35.9536 132.163 36.4271 131.808C37.0404 131.349 37.1409 130.377 37.0706 129.68C36.9208 128.196 35.5447 126.9 34.0425 127.633C33.885 127.71 33.7864 127.914 33.8291 128.085C33.9382 128.519 34.0406 128.955 34.1389 129.392C34.3136 130.164 34.3718 131.037 34.6648 131.769C34.7812 132.06 35.3158 132.157 35.369 131.759C35.4736 130.973 35.1812 130.112 34.9991 129.351C34.8845 128.87 34.764 128.391 34.6348 127.914C34.5638 128.064 34.4928 128.215 34.4219 128.365C36.4304 127.343 37.321 131.918 35.0579 131.493C34.8336 131.451 34.7467 131.79 34.9728 131.84Z" fill-rule="evenodd" fill="#3E3D62"/>
		<path d="M39.8446 130.818C39.2413 131.265 38.8979 131.263 38.8142 130.811C38.7845 130.718 38.755 130.624 38.726 130.53C38.6122 130.144 38.4999 129.714 38.5444 129.305C38.5812 128.967 38.6896 128.26 39.0967 128.513C39.7836 128.94 39.5767 130.213 39.6653 130.86C39.7118 131.202 40.1481 131.373 40.3481 131.035C40.8376 130.209 40.4169 128.788 39.8591 128.079C39.2178 127.264 38.3134 127.418 37.9235 128.376C37.7051 128.912 37.6774 129.485 37.7874 130.05C37.8943 130.599 38.0868 131.42 38.5234 131.824C38.8206 132.098 39.225 132.167 39.5908 131.979C40.0425 131.747 40.0889 131.342 40.2162 130.892C40.2827 130.656 39.9128 130.586 39.8446 130.818Z" fill-rule="evenodd" fill="#3E3D62"/>
		<path d="M41.0311 127.697C41.1376 128.482 41.2075 129.271 41.3063 130.056C41.3918 130.736 41.3972 131.449 41.6611 132.083C41.7881 132.387 42.2767 132.315 42.3021 131.984C42.348 131.379 42.1693 130.804 42.0502 130.213C41.876 129.348 41.6685 128.49 41.5065 127.622C41.4564 127.354 40.9943 127.423 41.0311 127.697Z" fill-rule="evenodd" fill="#3E3D62"/>
		<path d="M40.9087 127.636C41.3772 127.488 43.1642 127.068 42.8553 128.12C42.6656 128.766 41.8286 129.039 41.3176 129.344C41.061 129.498 41.1967 129.86 41.4441 129.922C42.4341 130.171 43.8152 128.745 43.6073 127.759C43.3212 126.403 41.6038 126.852 40.7499 127.209C40.5116 127.31 40.6608 127.715 40.9087 127.636Z" fill-rule="evenodd" fill="#3E3D62"/>
		<path d="M44.3412 128.08C44.6796 128.08 45.0181 128.082 45.3566 128.095C45.6927 128.108 46.0493 128.154 46.3793 128.077C46.6913 128.003 46.766 127.465 46.4083 127.398C46.0376 127.329 45.6532 127.407 45.2802 127.434C44.9749 127.457 44.6697 127.478 44.3647 127.505C44.0081 127.535 43.9595 128.081 44.3412 128.08Z" fill-rule="evenodd" fill="#3E3D62"/>
		<path d="M44.9475 127.906C44.912 128.657 44.9471 129.415 44.9734 130.166C44.9912 130.671 44.938 131.256 45.1541 131.719C45.291 132.012 45.8179 132.095 45.8729 131.685C45.9515 131.102 45.7823 130.45 45.7163 129.864C45.6399 129.185 45.594 128.49 45.3506 127.845C45.2773 127.651 44.9575 127.696 44.9475 127.906Z" fill-rule="evenodd" fill="#3E3D62"/>
		<path d="M49.4126 131.41C49.3063 130.103 49.3954 128.803 49.4141 127.495C49.2252 127.551 49.0365 127.608 48.848 127.664C49.2167 128.15 49.6166 128.647 50.1138 129.006C50.2625 129.114 50.4786 129.079 50.5868 128.931C50.9663 128.41 51.3607 127.895 51.818 127.441C51.6095 127.357 51.4011 127.274 51.1927 127.189C51.2224 127.77 51.2546 128.351 51.288 128.931C51.337 129.778 51.2838 130.729 51.5813 131.534C51.6709 131.777 52.094 131.863 52.1523 131.542C52.4034 130.16 52.0327 128.577 51.9221 127.182C51.8981 126.879 51.5271 126.69 51.297 126.931C50.8289 127.421 50.4226 127.975 50.0382 128.533C50.1957 128.508 50.3535 128.482 50.5114 128.457C50.0519 128.144 49.6729 127.711 49.3203 127.285C49.1428 127.07 48.7963 127.269 48.8031 127.514C48.84 128.842 48.8531 130.172 48.9788 131.495C49.0055 131.781 49.4354 131.689 49.4126 131.41Z" fill-rule="evenodd" fill="#3E3D62"/>
		<path d="M55.4519 130.664C55.0747 130.595 54.679 130.664 54.2982 130.691C54.0812 130.706 53.7987 130.677 53.5922 130.744C53.4174 130.8 53.4492 130.659 53.5016 130.785C53.6044 131.036 53.5698 130.569 53.5653 130.621C53.6075 130.145 53.5098 129.609 53.4979 129.13C53.4847 128.622 53.4894 128.115 53.4644 127.608C53.3206 127.743 53.1768 127.879 53.0326 128.014C53.6945 127.973 54.4142 128.015 55.0492 127.815C55.4392 127.692 55.299 127.102 54.9365 127.056C54.3219 126.98 53.6731 127.114 53.0585 127.176C52.7628 127.206 52.6058 127.398 52.639 127.694C52.7054 128.295 52.7373 128.899 52.775 129.503C52.8055 129.994 52.7555 130.646 52.967 131.104C53.1204 131.436 53.3524 131.427 53.6836 131.4C54.2709 131.353 55.0042 131.305 55.5283 131.017C55.6833 130.932 55.6071 130.693 55.4519 130.664Z" fill-rule="evenodd" fill="#3E3D62"/>
		<path d="M53.2491 129.199C53.7104 129.221 54.1836 129.339 54.6377 129.248C54.9706 129.181 54.8983 128.685 54.5734 128.669C54.3464 128.658 54.1467 128.691 53.9225 128.724C53.7054 128.757 53.4812 128.742 53.2623 128.741C52.9675 128.739 52.9535 129.185 53.2491 129.199Z" fill-rule="evenodd" fill="#3E3D62"/>
		<path d="M56.8048 126.375C56.834 127.224 56.8809 128.063 56.9486 128.911C57.005 129.614 56.9718 130.356 57.1716 131.033C57.2871 131.424 57.7961 131.363 57.8612 130.977C58.106 129.532 57.627 127.736 57.2476 126.34C57.1848 126.109 56.7953 126.106 56.8048 126.375Z" fill-rule="evenodd" fill="#3E3D62"/>
		<path d="M58.0914 132.778L58.11 132.757C58.4426 132.368 57.9313 131.816 57.5022 132.012L57.4368 132.042C57.1356 132.18 57.0756 132.599 57.2875 132.836C57.5219 133.099 57.8816 133.023 58.0914 132.778Z" fill-rule="evenodd" fill="#3E3D62"/>
		<path d="M8.60327 114.979L6.18445 122.31L81.588 121.894L79.8329 114.979C79.8329 114.979 8.01819 114.394 8.60327 114.979Z" fill-rule="evenodd" fill="#DCA67D"/>
		<path d="M53.1349 51.605C53.1349 51.605 50.3157 47.4462 46.8765 50.0935C44.6473 51.809 45.6254 54.8514 47.6111 57.2501C49.697 59.7704 52.8828 61.6342 53.1895 61.5946C53.4742 61.5581 56.2161 60.1573 58.1522 58.0327C60.2795 55.6982 61.6179 52.4845 60.0566 50.7546C56.8876 47.2437 53.1349 51.605 53.1349 51.605Z" fill-rule="evenodd" fill="#E9505F"/>
		<path d="M145.65 130.926L151.55 130.926L152.152 138.396L145.77 139.119L145.65 130.926Z" fill-rule="evenodd" fill="#F9C4AB"/>
		<path d="M148.796 138.776L152.152 138.396L151.55 130.926L148.419 130.926L148.796 138.776Z" fill-rule="evenodd" fill="#FEFEFE"/>
		<path d="M151.429 139.117C158.262 139.112 165.176 139.47 172.009 139.464C172.75 139.464 174.014 139.419 174.126 138.436C174.161 138.134 174.076 137.832 173.98 137.544C173.624 136.47 173.403 135.952 172.389 135.476C171.42 135.021 158.603 129.231 157.831 128.969C156.816 128.624 155.702 128.946 154.679 129.268C153.754 129.559 151.537 130.012 150.612 130.303L151.429 139.117Z" fill-rule="evenodd" fill="#CE7A24"/>
		<path d="M173.494 137.201L173.398 137.183C169.707 135.764 165.38 133.827 161.195 131.954C159.336 131.122 157.505 130.302 155.773 129.547C155.638 129.488 155.577 129.332 155.635 129.198C155.693 129.063 155.852 129.003 155.984 129.06C157.719 129.816 159.551 130.637 161.412 131.469C165.59 133.339 169.91 135.273 173.589 136.689C173.725 136.741 173.794 136.894 173.741 137.031C173.7 137.137 173.6 137.201 173.494 137.201Z" fill-rule="evenodd" fill="#3E3D62"/>
		<path d="M163.687 139.564C163.547 139.564 163.43 139.454 163.422 139.312L163.331 137.495C163.324 137.348 163.437 137.223 163.583 137.216C163.716 137.2 163.853 137.321 163.861 137.468L163.952 139.285C163.96 139.432 163.847 139.556 163.7 139.563L163.687 139.564Z" fill-rule="evenodd" fill="#3E3D62"/>
		<path d="M165.585 139.591C165.444 139.591 165.328 139.481 165.321 139.34L165.23 137.522C165.222 137.375 165.335 137.251 165.481 137.244C165.61 137.227 165.752 137.349 165.76 137.495L165.85 139.313C165.858 139.459 165.745 139.584 165.599 139.591L165.585 139.591Z" fill-rule="evenodd" fill="#3E3D62"/>
		<path d="M167.374 139.619C167.233 139.619 167.116 139.509 167.109 139.367L167.018 137.549C167.011 137.403 167.124 137.278 167.27 137.271C167.4 137.26 167.541 137.376 167.547 137.523L167.639 139.341C167.646 139.487 167.533 139.612 167.387 139.619L167.374 139.619Z" fill-rule="evenodd" fill="#3E3D62"/>
		<path d="M102.126 122.494C116.269 121.776 145.77 128.198 146.128 128.571C146.437 128.894 147.136 140.036 147.136 140.036C144.023 141.677 112.676 140.74 99.8403 139.602C94.5782 139.135 88.6542 138.712 83.7714 136.693C77.8119 134.23 77.0304 127.59 78.3961 122.482C80.5198 114.539 100.082 106.037 112.966 97.9413L110.676 89.9235L137.003 88.778C137.003 88.778 148.547 113.098 142.069 122.562C133.517 135.057 102.126 122.494 102.126 122.494Z" fill-rule="evenodd" fill="#3E3D62"/>
		<path d="M102.344 122.515L102.348 122.515L102.344 122.515ZM139.737 127.188L139.687 127.183C119.606 122.448 102.289 122.697 102.154 122.71L102.126 122.493L101.915 122.438C101.966 122.243 101.973 122.214 105.162 122.287C106.918 122.327 109.764 122.433 113.353 122.708C119.613 123.187 129.281 124.279 139.787 126.757C139.905 126.785 139.978 126.902 139.95 127.02C139.927 127.121 139.837 127.188 139.737 127.188Z" fill-rule="evenodd" fill="#FEFEFE"/>
		<path d="M101 103.17L142.808 99.6011C142.808 99.6011 137.693 48.8613 114.396 48.1155C90.3475 47.3458 102.415 108.09 101 103.17Z" fill-rule="evenodd" fill="#F8B158"/>
		<path d="M86.7732 110.206C86.7732 110.206 81.1199 114.972 81.8132 117.538C82.421 119.787 89.2708 115.341 89.2708 115.341L86.7732 110.206Z" fill-rule="evenodd" fill="#F9C4AB"/>
		<path d="M81.9711 117.899C81.9283 117.899 81.8851 117.889 81.8451 117.867C81.7163 117.797 81.6686 117.636 81.7382 117.507C82.2599 116.544 83.7357 115.366 83.7983 115.316C83.913 115.224 84.08 115.245 84.1705 115.359C84.2616 115.473 84.2423 115.64 84.1277 115.731C84.1133 115.743 82.674 116.892 82.2041 117.76C82.1562 117.849 82.0648 117.899 81.9711 117.899Z" fill-rule="evenodd" fill="#3E3D62"/>
		<path d="M83.406 118.257C83.3589 118.257 83.3105 118.245 83.2672 118.217C83.1427 118.14 83.104 117.977 83.1809 117.853C83.6632 117.071 84.8433 116.138 84.8933 116.098C85.0079 116.008 85.1753 116.028 85.2649 116.143C85.3555 116.258 85.3358 116.424 85.2208 116.515C85.2095 116.524 84.0648 117.43 83.6317 118.131C83.5817 118.213 83.4952 118.257 83.406 118.257Z" fill-rule="evenodd" fill="#3E3D62"/>
		<path d="M110.699 72.1531L107.51 93.8924L85.573 110.068L89.7743 115.786C89.7743 115.786 114.65 106.031 117.843 102.835C121.037 99.6399 125.048 76.5405 125.048 76.5405L110.699 72.1531Z" fill-rule="evenodd" fill="#F8B158"/>
		<path d="M117.843 103.205C117.749 103.205 117.655 103.169 117.582 103.097C117.438 102.952 117.438 102.718 117.582 102.574C120.657 99.4969 124.645 76.7075 124.685 76.4777C124.72 76.2764 124.911 76.144 125.111 76.1768C125.313 76.2119 125.447 76.403 125.412 76.6038C125.247 77.5516 121.343 99.8553 118.104 103.097C118.032 103.169 117.938 103.205 117.843 103.205Z" fill-rule="evenodd" fill="#3E3D62"/>
		<path d="M95.3473 103.23C95.2339 103.23 95.1219 103.178 95.0497 103.079C94.9287 102.915 94.9637 102.684 95.1279 102.563L107.167 93.6862L110.333 72.0994C110.363 71.8973 110.549 71.7567 110.752 71.7877C110.954 71.8167 111.094 72.0052 111.064 72.207L107.875 93.946C107.86 94.0435 107.808 94.1313 107.729 94.1896L95.566 103.158C95.5001 103.207 95.4232 103.23 95.3473 103.23Z" fill-rule="evenodd" fill="#3E3D62"/>
		<path d="M91.5222 27.9069C91.5222 27.9069 90.7557 37.8058 92.7683 43.2083C94.6699 48.3109 99.6832 50.6221 104.37 49.4152L105.738 52.912C105.738 52.912 112.41 52.9672 118.013 49.6165L115.964 41.2839L111.373 23.7136L108.231 20.8182L92.0026 22.5486L91.5222 27.9069Z" fill-rule="evenodd" fill="#F9C4AB"/>
		<path d="M102.143 32.8966C102.147 33.4169 101.728 33.8412 101.208 33.8448C100.688 33.8484 100.264 33.4291 100.26 32.9089C100.256 32.3885 100.675 31.9637 101.195 31.9604C101.715 31.9568 102.14 32.3762 102.143 32.8966Z" fill-rule="evenodd" fill="#3E3D62"/>
		<path d="M96.4623 33.0616C96.4655 33.582 96.0465 34.0068 95.527 34.01C95.007 34.0137 94.5825 33.5944 94.5793 33.0739C94.5757 32.5536 94.9943 32.1289 95.5146 32.1257C96.0341 32.1221 96.4586 32.5413 96.4623 33.0616Z" fill-rule="evenodd" fill="#3E3D62"/>
		<path d="M98.932 37.8392C98.5591 37.8392 98.1959 37.7764 97.8662 37.6525C97.6941 37.5875 97.6073 37.3958 97.6718 37.2237C97.7365 37.0511 97.929 36.965 98.1005 37.0293C98.5439 37.1963 99.0721 37.2186 99.5876 37.094C100.058 36.9796 100.489 36.7466 100.801 36.4375C100.931 36.3077 101.142 36.3086 101.271 36.4388C101.401 36.5695 101.4 36.7803 101.269 36.91C100.867 37.3088 100.34 37.5961 99.7445 37.7409C99.4747 37.8065 99.2008 37.8392 98.932 37.8392Z" fill-rule="evenodd" fill="#3E3D62"/>
		<path d="M110.766 46.0359C110.309 46.8416 105.486 51.5709 105.279 51.7279C105.279 51.7279 104.187 48.9135 104.309 49.2709C104.359 49.4185 105.604 49.1763 107.02 48.3372C108.288 47.5851 109.548 46.5713 110.312 45.9189L110.766 46.0359Z" fill-rule="evenodd" fill="#3E3D62"/>
		<path d="M101.815 49.8355C100.646 49.8355 99.4548 49.6539 98.2778 49.2451C98.1045 49.1844 98.0127 48.9952 98.0731 48.8212C98.1328 48.6478 98.3212 48.5558 98.4962 48.6159C102.916 50.1534 107.575 48.2722 110.231 45.7269C110.363 45.5999 110.574 45.6039 110.701 45.7369C110.828 45.8699 110.824 46.0806 110.691 46.2076C108.593 48.2189 105.303 49.8355 101.815 49.8355Z" fill-rule="evenodd" fill="#3E3D62"/>
		<path d="M99.8328 29.5154C100.402 28.934 102.131 29.2135 102.631 29.4066C102.631 29.4066 103.016 29.8536 102.665 30.3507C102.257 30.9302 100.649 30.7049 100.06 30.7031C100.012 30.7031 99.9615 30.7026 99.9192 30.6799C99.8678 30.6522 99.8378 30.597 99.8124 30.5446C99.715 30.3466 99.6326 30.1304 99.6526 29.9105C99.6676 29.7484 99.7317 29.6187 99.8328 29.5154Z" fill-rule="evenodd" fill="#3E3D62"/>
		<path d="M93.7131 29.7885C94.2699 29.1953 96.0045 29.4398 96.5081 29.6227C96.5081 29.6227 96.9021 30.0616 96.5619 30.5661C96.165 31.1537 94.5537 30.9612 93.9637 30.9713C93.9159 30.9722 93.8665 30.9726 93.8236 30.9507C93.7717 30.9243 93.7404 30.8697 93.714 30.8179C93.6122 30.6216 93.5256 30.4072 93.5416 30.1868C93.553 30.0247 93.6149 29.8936 93.7131 29.7885Z" fill-rule="evenodd" fill="#3E3D62"/>
		<path d="M112.108 32.8897C113.507 31.9081 116.174 30.1286 117.85 30.9543C119.273 31.655 119.717 33.5024 118.898 34.9115C117.561 37.2114 114.362 38.7523 113.428 39.2791L112.108 32.8897Z" fill-rule="evenodd" fill="#F9C4AB"/>
		<path d="M115.087 33.6827C114.99 33.6827 114.894 33.6403 114.828 33.5593C114.713 33.4163 114.734 33.207 114.877 33.0908C114.914 33.0608 115.802 32.3569 117.283 32.6102C117.465 32.6406 117.586 32.8126 117.556 32.9939C117.525 33.1751 117.351 33.2976 117.172 33.2661C115.982 33.0644 115.303 33.6025 115.296 33.6079C115.234 33.6581 115.16 33.6827 115.087 33.6827Z" fill-rule="evenodd" fill="#3E3D62"/>
		<path d="M116.049 35.1068C116.006 35.1068 115.963 35.0981 115.92 35.0809C115.751 35.0099 115.672 34.815 115.742 34.6456C115.744 34.6401 115.964 34.1052 116.106 33.1332C116.133 32.9515 116.301 32.8282 116.484 32.8523C116.666 32.8793 116.791 33.0486 116.765 33.2302C116.608 34.2942 116.366 34.8787 116.355 34.9028C116.302 35.0303 116.178 35.1068 116.049 35.1068Z" fill-rule="evenodd" fill="#3E3D62"/>
		<path d="M90.6178 27.7448C94.2686 28.9535 98.5767 26.2612 102.28 24.8582C105.303 23.7122 107.749 25.0147 108.407 25.541C108.553 25.658 111.129 37.011 111.316 36.97L113.966 36.6063C114.163 36.563 113.1 32.2514 113.299 32.1444C113.734 31.9113 114.705 31.4338 115.237 31.2693C117.236 30.6512 118.621 31.2662 118.621 31.2662C118.621 31.2662 118.031 22.3993 116.791 19.4465C116.322 18.3312 115.686 17.2545 114.75 16.4897C113.488 15.4604 111.809 15.0952 110.184 15.0074C107.135 14.8425 100.125 17.4566 98.9435 17.7375C98.9435 17.7375 87.6124 21.1883 86.0488 20.7604C86.0488 20.7604 86.1384 26.262 90.6178 27.7448Z" fill-rule="evenodd" fill="#3E3D62"/>
		<path d="M105.737 53.2453C105.562 53.2453 105.415 53.1069 105.406 52.9294C105.396 52.7455 105.538 52.5894 105.721 52.5798C114.594 52.1231 118.262 49.1304 118.298 49.1003C118.438 48.9814 118.648 49.0001 118.766 49.1408C118.884 49.2809 118.867 49.4909 118.727 49.6093C118.574 49.738 114.88 52.775 105.755 53.2449L105.737 53.2453Z" fill-rule="evenodd" fill="#3E3D62"/>
	</g>
	<defs/>
</svg>
