<svg width="256.000000" height="216.000015" viewBox="0 0 256 216" fill="none" xmlns="http://www.w3.org/2000/svg" xmlns:xlink="http://www.w3.org/1999/xlink">
	<desc>
			Created with Pixso.
	</desc>
	<mask id="mask2_463" mask-type="alpha" maskUnits="userSpaceOnUse" x="0.000000" y="0.000000" width="256.000000" height="216.000000">
		<rect width="256.000000" height="216.000000" fill="#C4C4C4"/>
	</mask>
	<g mask="url(#mask2_463)">
		<path d="M62.5842 164.31C61.3567 159.611 63.0818 152.237 65.2644 149.076C73.437 137.242 98.5735 143.042 102.591 154.219C104.101 158.418 106.224 165.848 100.977 167.616C96.7258 169.048 98.8762 166.367 94.8853 170.556C93.2712 172.25 90.9829 173.258 87.9783 172.75C83.6106 172.012 86.1721 170.647 81.4456 172.145C78.5784 173.054 76.4207 172.298 74.3967 170.831C69.8901 167.564 73.908 169.195 67.553 168.655C64.7751 168.419 63.2078 166.696 62.5842 164.31ZM139.192 134.855C138.67 138.776 137.531 148.161 136.375 151.353C135.625 153.426 132.313 156.05 134.963 157.063C140.123 159.034 141.739 139.236 142.232 136.534C143.236 131.037 148.266 128.151 153.094 131.652C151.603 134.616 150.14 136.161 149.69 140.593C149.249 144.949 150.071 147.125 148.481 151.412C142.964 166.288 128.016 165.122 127.081 159.015C126.612 155.95 128.511 152.186 129.512 149.648C130.833 146.301 130.636 143.61 132.49 140.564C135.325 135.903 135.816 135.045 139.192 134.855ZM186.799 159.01C186.812 146.931 184.671 145.026 181.133 135.464C179.204 130.248 173.91 114.993 183.307 114.787C186.619 114.714 187.72 116.042 188.032 112.179C188.21 109.965 188.542 107.892 189.331 106.129C192.019 100.116 195.466 104.011 198.88 104.368C201.37 104.629 205.948 99.7391 210.29 103.257C213.579 105.921 212.93 109.282 214.703 113.003C220.154 113.88 223.013 113.935 224.436 119.253C225.562 123.462 224.713 129.296 223.951 133.471C222.812 139.708 223.434 141.63 224.949 147.157C225.503 149.176 225.96 151.389 226.55 153.321C227.125 155.201 228.159 157.347 228.347 158.998L186.799 159.01ZM111.161 107.385C111.927 108.949 112.02 109.31 110.576 110.466L108.781 110.107C108.524 109.063 108.581 108.425 108.989 107.444L111.161 107.385ZM146.613 93.0848C149.347 91.4354 151.608 96.6262 146.754 95.7524C146.373 94.819 146.318 94.1062 146.613 93.0848ZM117.544 80.8394C118.912 80.5833 120.07 80.5487 121.225 79.7655C127.628 72.6227 140.362 72.9655 141.862 72.1442C143.037 71.5006 143.359 69.9189 143.811 68.723C148.039 57.5182 155.31 40.2617 161.615 30.9584C165.281 25.5482 167.665 23.5946 173.191 28.7799C185.566 40.3919 187.415 68.4335 185.236 86.147C184.972 88.2938 183.536 92.8333 184.644 94.361C186.093 96.0606 188.532 94.2805 196.103 98.0213C193.281 100.891 191.253 98.5078 188.002 102.21C185.868 104.641 185.336 107.693 184.743 111.496L181.795 111.758C171.833 113.02 174.606 126.786 177.221 134.194C179.13 139.604 185.799 152.636 183.078 158.996L148.209 158.927C149.148 157.374 149.85 156.29 150.712 154.495C151.696 152.447 151.795 150.625 152.546 148.976C153.098 147.763 157.564 145.988 160.712 142.973C165.875 138.027 169.577 132.695 168.771 122.06C168.5 118.477 167.482 112.471 164.625 111.429C160.457 109.908 158.969 115.595 157.385 118.095C152.982 125.042 144.1 123.399 135.039 122.978L133.364 119.322C135.803 117.884 137.673 114.814 138.337 110.687C139.236 105.099 138.033 103.258 135.967 100.033C142.252 100.886 144.423 104.695 148.855 106.194C148.328 105.353 148.584 105.747 147.872 104.993L144.982 101.91C152.896 102.625 154.247 95.0735 150.054 92.0242C145.391 88.6333 139.664 92.8973 141.91 99.5164C137.693 97.7082 136.456 96.2698 130.355 96.6279C127.605 96.8404 125.272 97.5897 122.98 98.4871C118.487 100.789 115.341 102.83 113.725 107.537C112.128 106.637 110.375 104.832 107.468 105.569C99.814 107.512 103.896 120.292 112.733 115.216C112.816 115.571 112.952 116.275 113.068 116.577L113.762 117.784C113.599 114.737 114.172 113.601 114.621 110.914C116.878 115.473 115.873 115.318 120.198 118.071C123.283 120.034 125.992 120.834 130.373 120.744C131.771 124.682 132.907 123.333 130.421 126.849C120.283 141.18 119.928 132.047 113.625 132.436C106.663 132.866 114.044 142.179 115.097 143.432C116.435 145.023 118.033 146.194 119.969 147.591C121.352 148.59 124.588 150.063 125.444 150.95C124.475 153.302 123.931 155.932 123.675 158.993L107.369 158.888C105.612 152.578 104.915 150.028 101.181 146.597C97.0952 144.202 93.7021 141.265 87.3191 140.189C87.7507 136.842 91.1611 129.565 90.6033 127.449C89.4683 126.64 84.4175 125.416 82.6187 124.661C67.6682 118.391 53.1604 99.8356 48.5354 84.2614C46.1936 76.3761 45.7097 70.575 54.199 70.9633C60.2817 71.2413 65.9341 72.9947 71.3311 74.7713C76.7783 76.5647 81.656 78.5695 86.8828 80.7503C105.524 88.5281 98.835 88.5796 104.659 84.6754C107.56 82.7305 114.009 81.2326 117.544 80.8394ZM140.279 69.1389C132.441 69.6792 125.253 71.9935 120.534 76.0076C118.455 77.7765 118.854 77.3223 115.842 77.7876C113.908 78.0862 112.085 78.4611 110.195 78.9943C105.354 80.3598 104.297 81.408 100.695 83.4658L85.4241 76.5975C80.0999 74.4022 74.8298 72.3038 69.0239 70.603C55.6746 66.6927 40.0293 63.0903 44.855 83.1798C46.2344 88.9225 48.7827 94.0298 51.3738 98.64C53.8203 102.993 57.7014 108.67 60.6792 111.727C79.0315 130.568 81.1677 125.868 86.8706 129.832L83.9146 139.354C76.2368 139.799 71.0754 139.034 65.885 143.672C59.9951 148.936 61.1482 150.433 58.8882 159.013C54.3296 158.952 61.9446 158.996 57.3835 158.999C54.7549 159 51.6821 157.807 51.3738 160.507C51.0415 163.416 54.6914 162.246 56.9534 162.245C61.6655 162.243 54.1895 162.216 58.9006 162.256C59.9751 168.291 61.9707 171.696 68.4343 171.93C72.761 172.087 71.4106 173.395 75.0242 174.938C79.342 176.782 80.2271 175.151 83.574 174.97C85.4639 174.868 87.543 176.685 91.6079 175.934C94.5901 175.382 96.4292 173.767 97.8921 172.29C101.196 168.953 106.412 172.994 107.681 162.252L124.825 162.249C128.104 166.105 133.921 168 140.345 165.225C143.747 163.754 143.393 162.204 147.572 162.224L232.1 162.245C237.806 162.284 237.389 158.911 232.101 158.951C230.291 154.508 229.441 151.497 228.173 146.521C226.338 139.321 226.24 139.621 227.562 131.872C228.338 127.328 228.724 120.774 226.998 116.689C224.984 111.925 222.867 111.178 217.099 109.791C216.101 105.445 214.447 101.83 211.346 100.022C205.832 96.8075 202.563 100.42 198.644 100.939C199.487 99.637 203.367 98.1109 196.889 94.7C194.258 93.3152 191.021 92.4272 187.753 92.1383C189.097 77.6782 190.387 68.0073 187.658 53.4925C184.713 37.8223 172.5 11.8049 160.587 26.9133C155.44 33.4402 149.715 45.8988 146.266 53.9341C144.459 58.1419 141.463 64.6898 140.279 69.1389Z" fill-rule="evenodd" fill="#683931"/>
		<path d="M161.295 73.4342C155.12 74.0879 151.233 83.8607 154.794 66.3386C156.24 59.2259 161.118 34.9722 167.102 31.7004C172.422 28.7914 176.889 38.4361 178.438 42.4871C182.989 54.3909 184.273 69.9718 182.212 83.5189C181.668 87.0969 181.564 90.5481 178.634 91.5455C175.516 92.6066 172.092 90.9458 169.856 89.4484C167.247 87.7014 165.367 86.457 163.32 84.3553C161.219 82.1981 158.333 80.3914 163.7 78.5832L162.599 78.1666C160.936 77.6359 158.848 77.9879 161.295 73.4342ZM121.225 79.7655L122.618 81.6086C123.014 82.3344 123.369 83.1203 123.76 83.8976C124.533 85.4299 125.065 86.6181 125.884 88.2182C127.012 90.4229 129.921 95.0571 130.355 96.6279C136.455 96.2698 137.693 97.7082 141.91 99.5164C139.664 92.8973 145.391 88.6333 150.054 92.0242C154.247 95.0735 152.895 102.625 144.982 101.91L147.872 104.993C148.584 105.747 148.328 105.353 148.855 106.194C149.278 106.384 148.203 106.387 149.777 106.387C151.079 106.387 154.289 104.821 157.262 104.191C171.304 101.215 179.155 108.835 184.343 110.823L182.927 111.413C182.258 111.648 182.651 111.288 181.795 111.758L184.743 111.496C185.336 107.693 185.868 104.641 188.002 102.21C191.253 98.5078 193.281 100.891 196.103 98.0213C188.532 94.2805 186.093 96.0606 184.644 94.361C183.536 92.8333 184.971 88.2938 185.236 86.147C187.415 68.4335 185.566 40.3919 173.191 28.78C167.665 23.5946 165.281 25.5482 161.614 30.9585C155.31 40.2617 148.039 57.5182 143.811 68.723C143.359 69.9189 143.037 71.5006 141.861 72.1442C140.362 72.9654 127.628 72.6227 121.225 79.7655Z" fill-rule="evenodd" fill="#F9AE5D"/>
		<path d="M198.375 117.197C202.037 115.849 203.437 118.881 204.808 120.372C206.643 122.369 208.39 123.127 210.441 125.065C215.226 129.588 214.761 135.045 206.125 135.182C203.052 135.23 198.981 135.179 195.963 134.783C192.341 134.307 190.857 133.606 190.515 129.818C190.154 125.822 192.652 125.75 194.186 123.059C195.855 120.132 194.991 118.442 198.375 117.197ZM216.48 117.709C221.242 115.298 224.348 122.379 219.796 124.599C215.455 126.716 211.635 120.162 216.48 117.709ZM183.66 117.568C188.533 115.966 190.621 122.966 186.392 124.763C181.407 126.882 178.556 119.247 183.66 117.568ZM193.054 106.756C198.282 105.142 199.998 113.023 195.202 114.176C190.101 115.402 188.388 108.196 193.054 106.756ZM204.48 105.606C208.944 103.229 212.054 110.261 207.753 112.522C203.201 114.915 199.511 108.252 204.48 105.606ZM186.799 159.01L228.347 158.998C228.159 157.347 227.124 155.201 226.55 153.321C225.96 151.389 225.503 149.176 224.949 147.157C223.434 141.63 222.812 139.708 223.951 133.471C224.713 129.296 225.562 123.462 224.436 119.253C223.012 113.935 220.154 113.88 214.703 113.003C212.93 109.282 213.579 105.921 210.29 103.257C205.948 99.7392 201.369 104.629 198.88 104.368C195.466 104.011 192.019 100.116 189.33 106.129C188.542 107.892 188.21 109.965 188.032 112.179C187.72 116.042 186.619 114.714 183.307 114.787C173.91 114.993 179.204 130.248 181.133 135.464C184.671 145.026 186.812 146.931 186.799 159.01Z" fill-rule="evenodd" fill="#FFFFFF"/>
		<path d="M90.5886 99.0248C95.6807 100.168 94.2192 101.113 92.6467 103.916C94.1318 103.706 95.4263 103.182 96.9792 103.444C98.5085 108.113 97.2891 119.845 94.2659 122.966C90.5098 126.845 83.4583 121.028 78.9312 117.586C70.4092 111.107 62.2224 102.81 56.2073 92.0881C53.9746 88.1082 49.2319 77.1498 56.1431 75.8067C63.002 74.4738 83.6729 86.0761 90.0049 89.6823C104.74 98.0745 95.0911 94.7473 90.5886 99.0248ZM101.181 146.597C100.353 140.441 102.3 134.258 104.768 129.596C106.92 125.531 108.498 123.82 111.442 120.778C112.917 119.254 113.492 119.587 113.762 117.784L113.068 116.577C112.952 116.275 112.816 115.571 112.733 115.217C103.896 120.292 99.8142 107.512 107.468 105.569C110.375 104.832 112.128 106.637 113.726 107.537C115.341 102.83 118.487 100.789 122.98 98.4871C122.893 92.4001 119.456 86.1287 117.544 80.8394C114.009 81.2327 107.56 82.7305 104.659 84.6754C98.835 88.5796 105.524 88.5281 86.8828 80.7503C81.656 78.5695 76.7783 76.5647 71.3311 74.7713C65.9341 72.9947 60.2817 71.2414 54.199 70.9633C45.71 70.575 46.1938 76.3761 48.5354 84.2615C53.1604 99.8356 67.6682 118.391 82.6187 124.661C84.4175 125.416 89.4683 126.64 90.6035 127.449C91.1611 129.565 87.7507 136.842 87.3191 140.189C93.7021 141.265 97.0952 144.202 101.181 146.597Z" fill-rule="evenodd" fill="#F9AE5D"/>
		<path d="M181.795 111.758C182.651 111.288 182.258 111.648 182.927 111.413L184.343 110.823C179.155 108.835 171.304 101.215 157.262 104.191C154.289 104.821 151.079 106.387 149.777 106.387C148.203 106.387 149.278 106.384 148.855 106.194C144.423 104.695 142.252 100.886 135.967 100.033C138.033 103.258 139.236 105.099 138.337 110.687C137.673 114.814 135.803 117.884 133.364 119.322L135.039 122.978C144.1 123.399 152.982 125.042 157.385 118.095C158.969 115.595 160.457 109.908 164.625 111.429C167.483 112.471 168.5 118.477 168.771 122.06C169.577 132.695 165.875 138.027 160.712 142.973C157.564 145.988 153.098 147.763 152.546 148.976C151.795 150.625 151.696 152.447 150.712 154.495C149.85 156.29 149.148 157.374 148.209 158.927L183.078 158.996C185.799 152.636 179.13 139.604 177.221 134.194C174.606 126.786 171.833 113.02 181.795 111.758Z" fill-rule="evenodd" fill="#FFFFFF"/>
		<path d="M62.5845 164.31C63.2078 166.696 64.7751 168.419 67.5532 168.655C73.908 169.195 69.8904 167.564 74.3967 170.831C76.4209 172.298 78.5784 173.054 81.4456 172.145C86.1721 170.647 83.6106 172.012 87.9785 172.75C90.9829 173.258 93.2715 172.25 94.8853 170.556C98.8765 166.367 96.7258 169.048 100.977 167.616C106.224 165.848 104.101 158.418 102.591 154.219C98.5735 143.042 73.437 137.242 65.2644 149.076C63.0818 152.237 61.3567 159.611 62.5845 164.31Z" fill-rule="evenodd" fill="#FFFFFF"/>
		<path d="M157.185 71.0864C161.142 70.0551 163.878 69.2354 167.463 71.5175L167.445 73.6263L164.597 74.5281C164.694 74.6122 164.83 74.7028 164.91 74.7543C164.989 74.8049 165.125 74.9103 165.222 74.9695L166.789 75.7233C168.133 76.3031 172.345 78.22 170.623 80.4886C169.365 81.3364 166.925 80.7801 165.138 81.1818C165.889 82.8244 168.744 84.8091 170.366 85.9158C172.607 87.4458 174.619 88.7231 177.897 88.4957C180.45 81.2793 180.222 65.9665 179.003 57.8678C177.964 50.9564 174.3 35.1347 168.682 34.5349C164.154 38.0824 158.152 62.9966 157.185 71.0864Z" fill-rule="evenodd" fill="#FAD996"/>
		<path d="M90.6057 93.8334C90.5374 93.7775 90.4346 93.6952 90.3608 93.6404L87.3162 91.9378C85.7974 91.0476 84.6946 90.5156 83.1553 89.65C77.8884 86.689 60.8821 77.5796 56.187 79.2339C54.1348 83.7986 60.563 93.1083 62.5088 96.1029C68.2039 104.868 77.9404 113.472 86.9011 119.091C90.314 121.231 91.9106 122.645 93.365 117.738C94.2529 114.742 94.4172 110.381 94.2158 107.03C90.5378 108.594 91.0464 112.271 88.8545 110.281C86.8108 108.426 88.9792 104.263 89.4094 102.413C87.7947 103.004 87.3955 103.724 85.5515 103.191C84.4712 98.9812 88.4209 96.2761 91.2771 94.4928C91.2085 94.4132 91.1069 94.3096 91.0593 94.265L90.6057 93.8334Z" fill-rule="evenodd" fill="#FAD996"/>
		<path d="M113.762 117.784C113.492 119.587 112.917 119.254 111.442 120.778C108.498 123.82 106.92 125.531 104.768 129.596C102.3 134.258 100.353 140.441 101.181 146.597C104.915 150.028 105.612 152.578 107.369 158.888L123.676 158.993C123.931 155.932 124.475 153.302 125.444 150.95C124.588 150.063 121.352 148.59 119.969 147.591C118.033 146.194 116.435 145.023 115.097 143.432C114.044 142.179 106.663 132.866 113.625 132.436C119.928 132.047 120.283 141.18 130.421 126.849C132.907 123.333 131.771 124.682 130.373 120.744C125.992 120.834 123.283 120.034 120.198 118.071C115.873 115.318 116.878 115.473 114.621 110.914C114.172 113.601 113.599 114.737 113.762 117.784Z" fill-rule="evenodd" fill="#FFFFFF"/>
		<path d="M56.1868 79.2339C60.8821 77.5796 77.8882 86.689 83.155 89.65C84.6943 90.5155 85.7971 91.0476 87.3159 91.9378L90.3606 93.6404C90.4346 93.6952 90.5371 93.7775 90.6055 93.8334L91.0591 94.265C91.1067 94.3096 91.2085 94.4132 91.2771 94.4928C88.4209 96.2761 84.4709 98.9812 85.5513 103.191C87.3953 103.724 87.7944 103.004 89.4092 102.413C88.979 104.263 86.8105 108.426 88.8542 110.281C91.0461 112.271 90.5376 108.594 94.2156 107.03C94.4172 110.381 94.2527 114.742 93.3647 117.738C91.9104 122.645 90.3137 121.231 86.9009 119.091C77.9402 113.472 68.2039 104.868 62.5085 96.1029C60.5627 93.1083 54.1348 83.7986 56.1868 79.2339ZM90.5884 99.0248C95.0908 94.7473 104.74 98.0745 90.0046 89.6823C83.6726 86.0761 63.0017 74.4737 56.1428 75.8067C49.2317 77.1498 53.9744 88.1082 56.2073 92.0881C62.2222 102.81 70.4089 111.107 78.9309 117.586C83.4583 121.028 90.5095 126.845 94.2656 122.966C97.2888 119.845 98.5083 108.113 96.979 103.444C95.4263 103.182 94.1316 103.706 92.6465 103.916C94.2192 101.113 95.6804 100.168 90.5884 99.0248Z" fill-rule="evenodd" fill="#683931"/>
		<path d="M157.185 71.0864C158.152 62.9966 164.154 38.0824 168.682 34.5349C174.3 35.1347 177.964 50.9564 179.003 57.8678C180.222 65.9665 180.45 81.2792 177.897 88.4957C174.619 88.7231 172.607 87.4458 170.366 85.9158C168.744 84.8091 165.889 82.8244 165.138 81.1818C166.925 80.7801 169.365 81.3364 170.623 80.4886C172.345 78.22 168.133 76.3031 166.789 75.7233L165.222 74.9695C165.125 74.9103 164.989 74.8049 164.91 74.7543C164.83 74.7028 164.694 74.6122 164.597 74.5281L167.445 73.6262L167.463 71.5175C163.878 69.2354 161.142 70.0551 157.185 71.0864ZM161.296 73.4342C158.848 77.9879 160.936 77.6359 162.599 78.1667L163.7 78.5832C158.333 80.3914 161.219 82.1982 163.32 84.3553C165.367 86.457 167.247 87.7014 169.856 89.4485C172.092 90.9458 175.517 92.6067 178.634 91.5455C181.564 90.5481 181.668 87.097 182.212 83.5189C184.273 69.9718 182.989 54.3909 178.438 42.4871C176.889 38.4361 172.422 28.7914 167.102 31.7004C161.119 34.9723 156.24 59.2259 154.794 66.3386C151.233 83.8608 155.12 74.0879 161.296 73.4342Z" fill-rule="evenodd" fill="#683931"/>
		<path d="M139.192 134.855C135.816 135.045 135.326 135.903 132.49 140.564C130.636 143.61 130.833 146.301 129.512 149.648C128.511 152.186 126.612 155.95 127.081 159.015C128.017 165.122 142.964 166.288 148.481 151.412C150.071 147.125 149.249 144.949 149.69 140.593C150.14 136.161 151.603 134.616 153.094 131.652C148.266 128.151 143.236 131.037 142.233 136.534C141.739 139.236 140.123 159.034 134.963 157.063C132.313 156.05 135.625 153.426 136.375 151.353C137.531 148.161 138.67 138.776 139.192 134.855Z" fill-rule="evenodd" fill="#F78B8B"/>
		<path d="M198.375 117.197C194.991 118.442 195.855 120.132 194.186 123.059C192.652 125.75 190.155 125.822 190.515 129.818C190.858 133.606 192.341 134.307 195.963 134.783C198.981 135.179 203.052 135.23 206.125 135.182C214.761 135.045 215.226 129.588 210.441 125.065C208.391 123.127 206.643 122.369 204.808 120.372C203.437 118.881 202.037 115.849 198.375 117.197Z" fill-rule="evenodd" fill="#F78B8B"/>
		<path d="M117.544 80.8394C119.456 86.1287 122.893 92.4001 122.98 98.4871C125.272 97.5897 127.605 96.8404 130.355 96.6279C129.921 95.0571 127.012 90.4229 125.884 88.2182C125.065 86.6181 124.533 85.4299 123.761 83.8976C123.369 83.1203 123.014 82.3345 122.618 81.6086L121.225 79.7655C120.07 80.5487 118.913 80.5833 117.544 80.8394Z" fill-rule="evenodd" fill="#FFFFFF"/>
		<path d="M193.054 106.756C188.388 108.196 190.101 115.402 195.203 114.176C199.999 113.023 198.283 105.142 193.054 106.756Z" fill-rule="evenodd" fill="#F78B8B"/>
		<path d="M204.48 105.606C199.511 108.252 203.201 114.915 207.753 112.522C212.054 110.261 208.944 103.229 204.48 105.606Z" fill-rule="evenodd" fill="#F78B8B"/>
		<path d="M216.48 117.709C211.634 120.162 215.455 126.716 219.796 124.599C224.348 122.379 221.242 115.298 216.48 117.709Z" fill-rule="evenodd" fill="#F78B8B"/>
		<path d="M183.66 117.568C178.556 119.247 181.407 126.882 186.393 124.763C190.621 122.966 188.533 115.966 183.66 117.568Z" fill-rule="evenodd" fill="#F78B8B"/>
		<path d="M146.613 93.0849C146.318 94.1062 146.373 94.819 146.754 95.7525C151.608 96.6263 149.347 91.4355 146.613 93.0849Z" fill-rule="evenodd" fill="#FFFFFF"/>
		<path d="M108.781 110.107L110.576 110.466C112.02 109.31 111.927 108.949 111.161 107.385L108.989 107.444C108.581 108.425 108.524 109.063 108.781 110.107Z" fill-rule="evenodd" fill="#FFFFFF"/>
	</g>
	<defs/>
</svg>
